<svg width="13" height="13" viewBox="0 0 13 13" fill="none" xmlns="http://www.w3.org/2000/svg">
<path fill-rule="evenodd" clip-rule="evenodd" d="M12.5 6.47366C12.5 7.06545 11.54 7.50741 11.36 8.03927C11.18 8.57112 11.69 9.53745 11.36 9.97941C11.03 10.4214 9.98 10.2416 9.515 10.5787C9.05 10.9158 8.9225 11.957 8.36 12.1443C7.7975 12.3316 7.1075 11.545 6.5075 11.545C5.9075 11.545 5.195 12.2941 4.655 12.1443C4.115 11.9945 3.965 10.9158 3.5 10.5787C3.035 10.2416 2 10.4439 1.655 9.97941C1.31 9.51498 1.8275 8.60109 1.655 8.03927C1.4825 7.47745 0.5 7.06545 0.5 6.47366C0.5 5.88188 1.46 5.43992 1.64 4.90806C1.82 4.37621 1.31 3.40988 1.64 2.96791C1.97 2.52595 3.0275 2.70573 3.5 2.36864C3.9725 2.03155 4.085 0.990311 4.6475 0.780565C5.21 0.570819 5.9 1.40231 6.5 1.40231C7.1 1.40231 7.8125 0.653219 8.3525 0.803038C8.8925 0.952856 9.035 2.03155 9.5 2.36864C9.965 2.70573 11 2.50348 11.345 2.96791C11.69 3.43235 11.1725 4.34624 11.345 4.90806C11.5175 5.46988 12.5 5.88188 12.5 6.47366Z" fill="#3BA55C"/>
<path d="M6.16369 9.21719L3.63244 7.30297L4.37692 6.28205L5.86589 7.43058L8.57582 3.83484L9.58832 4.58552L6.16369 9.21719Z" fill="white"/>
</svg>
